<?xml version="1.0" encoding="utf-8"?>
<!-- Generator: Adobe Illustrator 19.2.1, SVG Export Plug-In . SVG Version: 6.00 Build 0)  -->
<svg version="1.1" id="Capa_1" xmlns="http://www.w3.org/2000/svg" xmlns:xlink="http://www.w3.org/1999/xlink" x="0px" y="0px"
	 viewBox="0 0 72.7 99" style="enable-background:new 0 0 72.7 99;" xml:space="preserve">
<style type="text/css">
	.st0{fill:#FFFFFF;}
</style>
<path class="st0" d="M13.8,50.7c0,6.4,2.1,11.6,6.5,15.9c4.4,4.3,9.7,6.5,16.4,6.5c6.6,0,12-2.1,16.3-6.5c4.4-4.5,6.5-9.7,6.5-15.8
	H13.8z"/>
<path class="st0" d="M5.9,9C4.8,9,3.9,8.7,3.1,8C2.4,7.2,2.1,6.4,2.1,5.3c0-1,0.4-1.9,1.1-2.6C3.9,2,4.8,1.6,5.9,1.6
	c1.1,0,2,0.4,2.7,1.1c0.7,0.7,1.1,1.6,1.1,2.6c0,1-0.4,1.9-1.1,2.6C7.8,8.7,6.9,9,5.9,9z"/>
<path class="st0" d="M17.1,9c-1.1,0-2-0.4-2.7-1.1c-0.7-0.7-1.1-1.6-1.1-2.6c0-1,0.4-1.9,1.1-2.6C15.1,2,16,1.6,17.1,1.6
	c1.1,0,2,0.4,2.7,1.1c0.7,0.7,1.1,1.6,1.1,2.6c0,1-0.4,1.9-1.1,2.6C19.1,8.7,18.2,9,17.1,9z"/>
<path class="st0" d="M36.7,76.1c7.3,0,13.5-2.5,18.5-7.4c4.9-5.1,7.4-11.1,7.4-17.9c0-7.1-2.5-13.2-7.4-18
	c-4.9-4.9-11.1-7.3-18.4-7.3c-7.3,0-13.5,2.5-18.4,7.3c-4.9,4.9-7.4,10.9-7.4,18c0,7.1,2.5,13.2,7.4,18
	C23.2,73.6,29.4,76.1,36.7,76.1z M36.7,31.3c5.8,0,10.4,1.8,14.2,5.6c3.8,3.8,5.7,8.3,5.7,13.8c0,5.3-1.9,9.8-5.7,13.8
	c-3.8,3.8-8.5,5.7-14.2,5.7c-5.8,0-10.4-1.8-14.2-5.6c-3.8-3.8-5.7-8.3-5.7-13.8c0-5.5,1.9-10.1,5.7-13.8
	C26.3,33.1,30.9,31.3,36.7,31.3z"/>
<rect x="25.1" y="2.3" class="st0" width="45.7" height="6"/>
<path class="st0" d="M2.4,86h68.4V13.6H2.4V86z M64.8,19.7V80H8.4V19.7H64.8z"/>
<rect x="2.4" y="91.2" class="st0" width="68.4" height="6"/>
</svg>
