<?xml version="1.0" encoding="utf-8"?>
<!-- Generator: Adobe Illustrator 20.0.0, SVG Export Plug-In . SVG Version: 6.00 Build 0)  -->
<svg version="1.1" id="Capa_1" xmlns="http://www.w3.org/2000/svg" xmlns:xlink="http://www.w3.org/1999/xlink" x="0px" y="0px"
	 viewBox="0 0 280 202" style="enable-background:new 0 0 280 202;" xml:space="preserve">
<style type="text/css">
	.st0{fill:#8DC63F;}
	.st1{fill:#39B54A;}
	.st2{fill:#603913;}
	.st3{fill:#F8CB00;}
	.st4{fill:#C49A6C;}
	.st5{fill:#8B5E3C;}
	.st6{fill:#754C29;}
	.st7{fill:#FEE4A4;}
	.st8{fill:#203141;}
	.st9{fill:#009444;}
</style>
<g>
	<g>
		<path class="st0" d="M77.4,91c0.7,1.4,1.8,2.3,3.1,2.8c1.3,0.5,2.8,0.4,4.2-0.2l5.3-2.5c-2,9.8-7.2,19.2-13.9,29.3
			c-0.5,0.8-1,1.5-1.5,2.3c-0.9-0.1-1.8-0.1-2.7-0.2c-12.1-1-22.6-2.8-31.6-7.3l5.3-2.5c1.4-0.7,2.3-1.8,2.8-3.1
			c0.5-1.3,0.4-2.8-0.2-4.2c-1.3-2.7-4.6-3.9-7.3-2.6l-10.9,5.3c-4.6-4.2-8.6-9.7-12-16.8c-0.1-0.2-0.2-0.4-0.3-0.6l10.6-5.1
			c1.4-0.7,2.3-1.8,2.8-3.1c0.5-1.3,0.4-2.8-0.2-4.2c-1.3-2.7-4.6-3.9-7.3-2.6l-9.9,4.8C11.4,73.8,9.9,67,9,60.1l14.3-6.9
			c1.4-0.7,2.3-1.8,2.8-3.1c0.5-1.3,0.4-2.8-0.2-4.2c-1.3-2.7-4.6-3.9-7.3-2.6l-10.4,5C7.7,32.4,10.8,16.9,18.3,5.9
			c13.2,1,27.3,8.3,39.5,18.5l-10.4,5c-2.7,1.3-3.9,4.6-2.6,7.3c0.7,1.4,1.8,2.3,3.1,2.8c1.3,0.5,2.8,0.4,4.2-0.2l14.3-6.9
			c4.9,5,9.2,10.4,12.9,15.9l-9.9,4.8c-2.7,1.3-3.9,4.6-2.6,7.3c0.7,1.4,1.8,2.3,3.1,2.8c1.3,0.5,2.8,0.4,4.2-0.2l10.6-5.1
			c0.1,0.2,0.2,0.4,0.3,0.5c3.4,7.1,5.2,13.7,5.7,19.9l-10.9,5.3C77.2,84.9,76,88.2,77.4,91z"/>
		<path class="st1" d="M27,18.5l49.1,101.7c-0.5,0.8-1,1.5-1.5,2.3c-0.9-0.1-1.8-0.1-2.7-0.2L22.7,20.6c-0.6-1.2-0.1-2.6,1.1-3.1
			C25,16.9,26.4,17.3,27,18.5z"/>
	</g>
	<g>
		<path class="st2" d="M210.7,188h-5.1V92.4c0-14.9,12.1-27,27-27h5.1v95.5C237.7,175.9,225.6,188,210.7,188z"/>
		<g>
			<path class="st3" d="M212.9,175.1h-0.5c-0.8,0-1.4,0.6-1.4,1.4v21.3h0.5c1.5,0,2.8-1.2,2.8-2.8v-18.5
				C214.3,175.7,213.6,175.1,212.9,175.1z"/>
			<path class="st3" d="M221.9,171.6h-0.5c-0.8,0-1.4,0.6-1.4,1.4v21.3h0.5c1.5,0,2.8-1.2,2.8-2.8V173
				C223.3,172.2,222.6,171.6,221.9,171.6z"/>
			<path class="st3" d="M230.9,168.1h-0.5c-0.8,0-1.4,0.6-1.4,1.4v21.3h0.5c1.5,0,2.8-1.2,2.8-2.8v-18.5
				C232.3,168.7,231.7,168.1,230.9,168.1z"/>
		</g>
	</g>
	<g>
		<path class="st2" d="M101.7,188h-5.1V92.4c0-14.9,12.1-27,27-27h5.1v95.5C128.7,175.9,116.6,188,101.7,188z"/>
		<g>
			<path class="st3" d="M103.9,175.1h-0.5c-0.8,0-1.4,0.6-1.4,1.4v21.3h0.5c1.5,0,2.8-1.2,2.8-2.8v-18.5
				C105.2,175.7,104.6,175.1,103.9,175.1z"/>
			<path class="st3" d="M112.9,171.6h-0.5c-0.8,0-1.4,0.6-1.4,1.4v21.3h0.5c1.5,0,2.8-1.2,2.8-2.8V173
				C114.2,172.2,113.6,171.6,112.9,171.6z"/>
			<path class="st3" d="M121.9,168.1h-0.5c-0.8,0-1.4,0.6-1.4,1.4v21.3h0.5c1.5,0,2.8-1.2,2.8-2.8v-18.5
				C123.3,168.7,122.7,168.1,121.9,168.1z"/>
		</g>
	</g>
	<path class="st4" d="M261.4,131.7H17.8c-5.4,0-9.7-4.4-9.7-9.7v-3.7c0-5.4,4.4-9.7,9.7-9.7h243.6c5.4,0,9.7,4.4,9.7,9.7v3.7
		C271.2,127.3,266.8,131.7,261.4,131.7z"/>
	<path class="st2" d="M115.1,32.2h72.2c35.5,0,64.2,28.7,64.2,64.2v12.1H50.9V96.4C50.9,61,79.7,32.2,115.1,32.2z"/>
	<g>
		<path class="st5" d="M56,188h-5.1V92.4c0-14.9,12.1-27,27-27h5.1v95.5C83.1,175.9,71,188,56,188z"/>
		<g>
			<path class="st3" d="M58.2,175.1h-0.5c-0.8,0-1.4,0.6-1.4,1.4v21.3h0.5c1.5,0,2.8-1.2,2.8-2.8v-18.5
				C59.6,175.7,59,175.1,58.2,175.1z"/>
			<path class="st3" d="M67.2,171.6h-0.5c-0.8,0-1.4,0.6-1.4,1.4v21.3h0.5c1.5,0,2.8-1.2,2.8-2.8V173
				C68.6,172.2,68,171.6,67.2,171.6z"/>
			<path class="st3" d="M76.3,168.1h-0.5c-0.8,0-1.4,0.6-1.4,1.4v21.3h0.5c1.5,0,2.8-1.2,2.8-2.8v-18.5
				C77.6,168.7,77,168.1,76.3,168.1z"/>
		</g>
	</g>
	<g>
		<path class="st5" d="M139,188h-5.1V92.4c0-14.9,12.1-27,27-27h5.1v95.5C166,175.9,153.9,188,139,188z"/>
		<g>
			<path class="st3" d="M141.2,175.1h-0.5c-0.8,0-1.4,0.6-1.4,1.4v21.3h0.5c1.5,0,2.8-1.2,2.8-2.8v-18.5
				C142.5,175.7,141.9,175.1,141.2,175.1z"/>
			<path class="st3" d="M150.2,171.6h-0.5c-0.8,0-1.4,0.6-1.4,1.4v21.3h0.5c1.5,0,2.8-1.2,2.8-2.8V173
				C151.5,172.2,150.9,171.6,150.2,171.6z"/>
			<path class="st3" d="M159.2,168.1h-0.5c-0.8,0-1.4,0.6-1.4,1.4v21.3h0.5c1.5,0,2.8-1.2,2.8-2.8v-18.5
				C160.6,168.7,160,168.1,159.2,168.1z"/>
		</g>
	</g>
	<g>
		<path class="st6" d="M246.6,108.6h-72.5c-14.2,0-25.7-11.5-25.7-25.7V46.7c0-22.5,18.2-40.7,40.7-40.7h42.3
			c22.5,0,40.7,18.2,40.7,40.7v36.2C272.2,97.1,260.7,108.6,246.6,108.6z"/>
		<path class="st7" d="M182.6,23.7H238c12.8,0,23.2,10.4,23.2,23.2V68c0,18.2-14.7,32.9-32.9,32.9h-36c-18.2,0-32.9-14.7-32.9-32.9
			V46.9C159.4,34.1,169.8,23.7,182.6,23.7z"/>
		<g>
			<path class="st6" d="M194.7,65l-34.2,21.1l-10.5-26.4l29.9-18.5c4.8-2.9,11-1.5,14,3.3l4,6.5C201,55.8,199.5,62.1,194.7,65z"/>
			<path class="st6" d="M225.9,65l35.3,22.2l9.3-27.5l-29.9-18.5c-4.8-2.9-11-1.5-14,3.3l-4,6.5C219.6,55.8,221.1,62.1,225.9,65z"/>
		</g>
		<ellipse class="st8" cx="210.3" cy="57.3" rx="11.4" ry="5"/>
		<g>
			<circle class="st8" cx="184.7" cy="54.2" r="7"/>
			<circle class="st8" cx="235.9" cy="54.2" r="7"/>
		</g>
	</g>
	<path class="st0" d="M234,128.8c3.9,8.2,2.9,17.4-1.8,24.4c-8.4-0.6-16.3-5.6-20.3-13.8c-3.9-8.2-2.9-17.4,1.8-24.4
		C222.2,115.6,230.1,120.6,234,128.8z"/>
	<path class="st9" d="M213.4,132.6c-3.7,5.4-9.9,8-15.9,7.6c-2.6-5.5-2.3-12.2,1.4-17.6c3.7-5.4,9.9-8,15.9-7.6
		C217.4,120.5,217.1,127.2,213.4,132.6z"/>
</g>
</svg>
