<?xml version="1.0" encoding="utf-8"?>
<!-- Generator: Adobe Illustrator 20.0.0, SVG Export Plug-In . SVG Version: 6.00 Build 0)  -->
<svg version="1.1" id="Capa_1" xmlns="http://www.w3.org/2000/svg" xmlns:xlink="http://www.w3.org/1999/xlink" x="0px" y="0px"
	 viewBox="0 0 800 270.9" style="enable-background:new 0 0 800 270.9;" xml:space="preserve">
<style type="text/css">
	.st0{fill:#AAC9DD;}
	.st1{fill:#446479;}
	.st2{fill:#22506B;}
	.st3{fill:none;}
</style>
<g>
	<g>
		<path class="st0" d="M800,189.5v-170c0,0-7.6,4.8-11.1,5.1c-3.6,0.3-15.1,0.3-19.1,1.8c-4,1.5-12.4,5.9-17.8,5.9
			c-5.3,0-15.1-2-19.3-0.2c-4.1,1.8-11,8.6-18.7,8c-7.7-0.6-19.9-7.8-34.1-10.2c-14.2-2.3-22.5-8-26.1-7.8c-3.6,0.2-24-0.2-27.9-1.4
			c-3.9-1.2-7.1,5.1-14.8,6.1c-7.7,1-20.7,6.1-29.3,5.9c-8.6-0.2-36.7-2.7-40.6-2.1c-3.9,0.6-12.4,9.8-22.2,9
			c-9.8-0.8-24.9-13.1-30.8-13.9c-5.9-0.8-8-8.8-13.6-8.6c-5.6,0.2-11.9-3.3-18.7,1c-6.8,4.3-22.2,5.3-31.7,6.4
			c-9.5,1.2-17.8,4.3-29.6,15.6c-11.9,11.3-16.6,21.9-23.1,22.5c-6.5,0.6-16.3-6.6-21.9-5.7c-5.6,1-12.1,10.4-19.3,10.6
			c-7.1,0.2-35,0.6-40-1.6c-5-2.1-32.6-20.3-39.1-21.1c-6.5-0.8-7.1,2.2-18.4-2.7c-11.3-4.9-37.9-24.8-45-24
			c-7.1,0.8-20.7,10.2-34.7,11.1c-13.9,1-23.4-1.2-29,0.4c-5.6,1.6-9.8,6.6-18.7,7.4c-8.9,0.8-21.6-2.1-24.6-0.4
			c-3,1.8-4.2,8.8-13,10.4S51,45.3,47.4,47c-3.6,1.8-9.5,3.9-19.9,3.9C17.2,50.9,0,52.5,0,52.5v137H800z"/>
		<path class="st1" d="M800,231.8V64.2c0,0-11.1-3.4-18.7-3.7c-7.6-0.3-14.2,1-21.3,0c-7.1-1-9.6-4.7-14-4.4
			c-4.4,0.3-11.6,1.6-14.4,0c-2.9-1.6-10.2-10.2-13.3-10.4c-3.1-0.1-14,2.2-22.9,0c-8.9-2.2-12.4-7.8-19.8-7.9
			c-7.3-0.1-17.6,2.8-26.9,0c-9.3-2.8-19.8-6-24.2-8.6c-4.4-2.6-10-5.9-14-3.1s-40.7,26.7-49.3,28c-8.7,1.3-10.2-0.3-14.4,2.2
			c-4.2,2.5-27.1,18-33.6,19.9c-6.4,1.9-26.4,3.8-31.6,5.9c-5.1,2.1-16.7,6.9-25.1,6.7c-8.4-0.1-43.1-9.2-52.4-10.6
			c-9.3-1.3-18.7-0.7-22.9-2.6c-4.2-1.9-9.3-6.9-12.9-6.7c-3.6,0.1-8,3.1-11.6,3.2c-3.6,0.1-7.8,5.7-13.3,6.6
			c-5.6,0.9-29.8,17.6-37.6,18.2c-7.8,0.6-9.1,4.1-18.2,6c-9.1,1.9-18,4.5-18,4.5H0v124.4H800z"/>
		<path class="st2" d="M800,270.9V133.8c0,0-8.2,6-12.7,6.6c-4.4,0.6-13.3,0.4-16.2,1.2c-2.9,0.7-15.1,7.8-19.6,8.2
			c-4.4,0.4-16.7-0.9-19.3,0.4c-2.7,1.3-23.8,13.6-41.1,12.6c-17.3-1-17.6-7.8-32.9-10.1s-26-10.3-28.9-10.4
			c-2.9-0.1-11.1,0.7-16.7-0.1c-5.6-0.9-14-2.3-16.4-1.8c-2.4,0.6-5.8,7.3-8.4,7.9c-2.7,0.6-14.2,0.9-16.9,2.2
			c-2.7,1.3-19.8,7-30.4,4.7c-10.7-2.3-36-16.4-39.8-17c-3.8-0.6-10,0.4-14.9-2.2c-4.9-2.6-32.2-22.6-37.6-23.5
			c-5.3-0.9-13.1-4.7-17.1-3.8c-4,0.9-9.3,6.6-13.6,6.9c-4.2,0.3-57.8,13.3-70.2,13.3c-12.4,0-24-6.5-33.8-7.9
			c-9.8-1.5-23.3-3.9-38.2-12.4c-14.9-8.5-18.9-14.1-23.3-15c-4.4-0.9-5.8,2.1-18.7-4.1c-12.9-6.2-38.9-27.4-47.1-27.6
			c-8.2-0.1-22.9,13.8-35.6,13.9c-12.7,0.1-23.8-2.1-29.1,0.3c-5.3,2.3-13.8,8.4-21.8,8.2c-8-0.1-17.1-1.9-20,0.6
			c-2.9,2.5-8,9.8-15.3,10.4c-7.3,0.6-12-0.3-22.7,2.2c-10.7,2.5-41.8,5-41.8,5v168.3H800z"/>
		<path d="M800,224.9c0,0-149-19-255,0s-296-5-371,0s-174,0-174,0v46h800V224.9z"/>
		<g>
			<path class="st3" d="M52.7,202l0,2.2c0.4-0.1,0.7-0.2,1.1-0.3L52.7,202z"/>
			<polygon class="st3" points="79.3,232.9 67.3,225.9 72.1,234.4 			"/>
			<path class="st3" d="M63.3,222.6l1.9,1.1l-1.1-1.9C63.8,222.1,63.5,222.4,63.3,222.6z"/>
			<path class="st3" d="M48.8,206.4l-1.9-1.1l1.1,1.9C48.3,207,48.5,206.7,48.8,206.4z"/>
			<path class="st3" d="M46,210.4c0.4-0.9,0.9-1.7,1.5-2.5l-1.9-3.3l-13.3-7.8c-1.4,1.7-2.7,3.6-3.7,5.6l13.7,8L46,210.4z"/>
			<path class="st3" d="M38.1,191.4c-2,1.4-3.7,3-5.3,4.8l12.1,7L38.1,191.4z"/>
			<path class="st3" d="M52.6,225.4l0,1.6l1-1.7C53.6,225.4,53.1,225.5,52.6,225.4z"/>
			<path class="st3" d="M67.7,211.7l0.9-0.5l-2.2,0c0.1,0.2,0.1,0.3,0.1,0.5L67.7,211.7z"/>
			<path class="st3" d="M62.6,223.2c-0.2,0.2-0.4,0.3-0.6,0.4c0.1,2.9,0.2,7.5,0.2,8.4c0,0.1,0,0.1,0,0.1l0.3,0.6
				c0.5,0.2,1.3-0.2,1.7,0c0.4,0.2,0.4,2.2,0.4,3.2l6.7-1.4l-5.4-9.5L62.6,223.2z"/>
			<path class="st3" d="M78.8,196.8c-0.9-1-1.8-2-2.8-2.9l-7,8.5L78.8,196.8z"/>
			<path class="st3" d="M60.3,186.2l-0.1,12.9l6.5-11.1C64.7,187.2,62.5,186.6,60.3,186.2z"/>
			<path class="st3" d="M72.8,191.3c-1.7-1.2-3.5-2.2-5.4-3l-7.2,12.4l0,3.8c0.4,0.2,0.8,0.4,1.2,0.6L72.8,191.3z"/>
			<path class="st3" d="M30.8,233.7c1.6,2.3,3.5,4.3,5.7,6.1l8.2-14L30.8,233.7z"/>
			<path class="st3" d="M50.8,224c-0.4,0.1-0.7,0.2-0.9,0.1c-0.2-0.1-0.1-0.4,0-0.6c-0.1,0-0.1-0.1-0.2-0.2
				c-0.4,0.2-1.1,0.5-1.6,0.5L46,225l-8.9,15.3c1.8,1.4,3.7,2.5,5.8,3.5l9-15.4l0-3.7c0-0.1,0-0.1,0-0.2
				C51.5,224.4,51.1,224.2,50.8,224z"/>
			<path class="st3" d="M45.7,217.8c-0.1-0.4-0.2-0.7-0.3-1.1l-1.9,1.1L45.7,217.8z"/>
			<path class="st3" d="M69.3,211.7l16.3,0.1c0-0.2,0-0.3-0.1-0.5l-15.3-0.1L69.3,211.7z"/>
			<path class="st3" d="M52,199.1l0.1-13c-2.3,0.3-4.5,0.8-6.6,1.5L52,199.1z"/>
			<path class="st3" d="M38.7,190.9l7.4,13l3.3,1.9c0.8-0.6,1.6-1.1,2.5-1.4l0-3.8l-7.3-12.8C42.6,188.7,40.6,189.7,38.7,190.9z"/>
			<path class="st3" d="M47.1,223.5c0,0-0.1-0.1-0.1-0.1l-0.2,0.3L47.1,223.5z"/>
			<path class="st3" d="M51.7,246.3l0.1-16.3l-8.2,14.1C46.1,245.2,48.9,245.9,51.7,246.3z"/>
			<path class="st3" d="M43.5,211.1l1.9,1.1c0.1-0.4,0.2-0.7,0.3-1.1L43.5,211.1z"/>
			<path class="st3" d="M28.2,203c-1.1,2.3-1.9,4.7-2.4,7.2l14.9,0.1L28.2,203z"/>
			<path class="st3" d="M45.3,215.9c-0.1-0.5-0.1-0.9-0.1-1.4c0-0.5,0-1,0.1-1.4l-3.3-1.9L25.6,211c-0.3,1.6-0.4,3.3-0.4,5
				c0,0.6,0,1.1,0,1.7l16.7,0.1L45.3,215.9z"/>
			<path class="st3" d="M47.4,221.1c-0.6-0.8-1.1-1.6-1.4-2.5l-3.8,0l-14.9,8.5c0.8,2.1,1.9,4.1,3.1,6l15.1-8.6L47.4,221.1z"/>
			<path class="st3" d="M25.3,218.5c0.2,2.7,0.8,5.4,1.7,7.9l13.6-7.8L25.3,218.5z"/>
			<path class="st3" d="M177.7,186.8l-0.1,12.9l6.5-11.1C182.1,187.8,180,187.2,177.7,186.8z"/>
			<path class="st3" d="M190.2,191.9c-1.7-1.2-3.5-2.2-5.4-3l-7.2,12.4l0,3.8c0.4,0.2,0.8,0.4,1.2,0.6L190.2,191.9z"/>
			<path class="st3" d="M182.6,224.3l-1.1-1.9c-0.3,0.3-0.5,0.6-0.8,0.8L182.6,224.3z"/>
			<path class="st3" d="M56.8,227.6c-1.6-0.2-2.4-0.8-2.8-1.2l-1.3,2.3l-0.1,17.8c0.9,0.1,1.9,0.1,2.8,0.1c1.3,0,2.6-0.1,3.9-0.2
				l0.1-17.6l-0.4-0.7C58.5,227.8,57.8,227.7,56.8,227.6z"/>
			<path class="st3" d="M196.2,197.4c-0.9-1-1.8-2-2.8-2.9l-7,8.5L196.2,197.4z"/>
			<path class="st3" d="M171.3,204.5l-1.1-1.9l0,2.2l0,0C170.5,204.7,170.9,204.6,171.3,204.5z"/>
			<path class="st3" d="M170,225.4l0,2.2l1.1-1.9C170.8,225.6,170.4,225.5,170,225.4z"/>
			<path class="st3" d="M202.7,211.1c-0.4-2.4-1.2-4.6-2.1-6.8l-11.7,6.7L202.7,211.1z"/>
			<path class="st3" d="M156.1,191.5l7.4,13l0.7,0.4c-1.7-3.9-4.1-9.5-6.3-14.6C157.4,190.7,156.7,191.1,156.1,191.5z"/>
			<path class="st3" d="M182.7,207.5l-0.6,1c0.6,0.8,1.1,1.6,1.4,2.5l3.8,0l12.9-7.4c-1-2-2.2-3.9-3.6-5.7l-11.7,6.7L182.7,207.5z"
				/>
			<path class="st3" d="M183.8,211.8c0.1,0.4,0.2,0.7,0.3,1.1l1.9-1.1L183.8,211.8z"/>
			<path class="st3" d="M186,218.5l-1.9-1.1c-0.1,0.4-0.2,0.7-0.3,1.1L186,218.5z"/>
			<path class="st3" d="M65.3,207l-0.6,1c0.6,0.8,1.1,1.6,1.4,2.5l3.8,0l12.9-7.4c-1-2-2.2-3.9-3.6-5.7L67.6,204L65.3,207z"/>
			<path class="st3" d="M85,170c-0.9,0.3-1.9,1-2.4,1.3c0.2,0.4,0.6,1.1,1.2,1.9c0.3-0.3,1.1-1,2-1.3C85.6,171.3,85.3,170.6,85,170z
				"/>
			<path class="st3" d="M161.7,152.8c0.1,0.2,0.2,0.4,0.3,0.6c-0.1-0.9-0.3-1.7-0.6-2.3c0,0-0.1,0-0.1,0.1c-0.2,0.1-0.8-0.3-1.4-0.6
				c0,0.4-0.1,0.9-0.2,1.5c0.1,0,0.2,0,0.3,0C160.8,152,161.3,152.3,161.7,152.8z"/>
			<path class="st3" d="M86.1,172.6c0-0.1-0.1-0.2-0.1-0.4c-0.9,0.4-1.7,1-1.9,1.3c0.1,0.1,0.2,0.3,0.3,0.4
				C84.6,173.7,85.3,173,86.1,172.6C86.1,172.7,86.1,172.7,86.1,172.6z"/>
			<path class="st3" d="M71.5,210.5l13.8,0.1c-0.4-2.4-1.2-4.6-2.1-6.8L71.5,210.5z"/>
			<path class="st3" d="M84.6,174.3c0.6,0.7,1.3,1.4,2.1,1.8c-0.2-0.7-0.4-2-0.6-2.9C85.4,173.4,84.8,174,84.6,174.3z"/>
			<path class="st3" d="M93.2,214.1c0.3-0.5,0.7-0.9,1.1-1.3l-2,0c0,0.4,0.1,0.9,0.1,1.3L93.2,214.1z"/>
			<path class="st3" d="M159.3,152c0.1-0.7,0.2-1.3,0.2-1.7c-0.4-0.2-0.7-0.4-0.8-0.4c-0.3,0-1.2,0.6-1.5,0.8
				c-0.2,0.1,0.3,0.7,0.7,1.3C158.3,152,158.7,152,159.3,152z"/>
			<path class="st3" d="M94.4,209.1c-0.1-1.1-1-3.8-1-3.8s-1.4-0.3-2.9-0.7c0.8,2.3,1.3,4.8,1.6,7.3l2.6,0
				C94.6,210.6,94.5,209.7,94.4,209.1z"/>
			<path class="st3" d="M160.1,155.2c0.2,1.1-0.1,2.3-0.9,3.8c1-0.9,1.8-1.9,2.2-2.9c0.4-1.7,0.2-2.6-0.1-3.1
				c-0.3-0.4-0.7-0.6-1.3-0.6c-0.1,0-0.3,0-0.4,0c-0.1,0.4-0.2,0.8-0.3,1.2C159.7,154.1,160,154.6,160.1,155.2z"/>
			<path class="st3" d="M153.2,154.8c0.9,0.1,2.1,0.3,3.5,0.7c0.5,0.1,0.8,0.2,1.2,0.4c0.4-0.8,0.8-1.5,1-2.2
				c-0.2-0.1-0.3-0.3-0.5-0.4c-0.4,0.2-2.1,0-2.4,0.1c-0.3,0-0.6,0.5-1.1,0.6c-0.5,0-2.5-0.1-2.6,0
				C152.2,154.1,153,154.6,153.2,154.8z"/>
			<path class="st3" d="M159,153.3c0.1-0.3,0.2-0.6,0.3-0.9c-0.4,0-0.8,0-1.1,0.1c0.1,0.1,0.2,0.3,0.2,0.4
				C158.6,153,158.8,153.1,159,153.3z"/>
			<path class="st3" d="M163.4,189.2l6,10.5l0.1-13c-2.3,0.3-4.4,0.8-6.5,1.5L163.4,189.2z"/>
			<path class="st3" d="M164.8,221.7c-0.6-0.8-1.1-1.6-1.4-2.5l-3.8,0l-14.9,8.5c0.8,2.1,1.9,4.1,3.1,6l15.1-8.6L164.8,221.7z"/>
			<path class="st3" d="M142.7,219.1c0.2,2.7,0.8,5.4,1.7,7.9l13.6-7.8L142.7,219.1z"/>
			<path class="st3" d="M162.7,216.5c-0.1-0.5-0.1-0.9-0.1-1.4c0-0.5,0-1,0.1-1.4l-3.3-1.9l-16.3-0.1c-0.3,1.6-0.4,3.3-0.4,5
				c0,0.6,0,1.1,0,1.7l16.7,0.1L162.7,216.5z"/>
			<path class="st3" d="M163.4,210.9c0.4-0.9,0.9-1.7,1.5-2.5l-1.9-3.3l-13.3-7.8c-1.4,1.7-2.7,3.6-3.7,5.6l13.7,8L163.4,210.9z"/>
			<path class="st3" d="M169.2,246.9l0.1-16.3l-8.2,14.1C163.6,245.8,166.3,246.5,169.2,246.9z"/>
			<path class="st3" d="M163.5,225.6l-8.9,15.3c1.8,1.4,3.7,2.5,5.8,3.5l9-15.4l0-3.8c-0.9-0.4-1.7-0.9-2.5-1.5L163.5,225.6z"/>
			<path class="st3" d="M148.2,234.3c1.6,2.3,3.5,4.3,5.7,6.1l8.2-14L148.2,234.3z"/>
			<path class="st3" d="M145.6,203.6c-1.1,2.3-1.9,4.7-2.4,7.2l14.9,0.1L145.6,203.6z"/>
			<path class="st3" d="M164.2,224.3l1.9-1.1c-0.3-0.3-0.6-0.5-0.8-0.8L164.2,224.3z"/>
			<path class="st3" d="M164.3,205.9l1.1,1.9c0,0,0,0,0,0c-0.2-0.5-0.4-1-0.7-1.6L164.3,205.9z"/>
			<path class="st3" d="M160.9,211.7l1.9,1.1c0.1-0.4,0.2-0.7,0.3-1.1L160.9,211.7z"/>
			<path class="st3" d="M163.1,218.4c-0.1-0.4-0.2-0.7-0.3-1.1l-1.9,1.1L163.1,218.4z"/>
			<polygon class="st3" points="169.4,203 169.4,201.2 166.2,195.7 			"/>
			<path class="st3" d="M201.6,226.8c0.8-2.3,1.4-4.8,1.6-7.4l-14.3-0.1L201.6,226.8z"/>
			<path class="st3" d="M183.5,219.3c-0.4,0.9-0.9,1.7-1.4,2.5l1.9,3.3l14.3,8.4c1.2-1.9,2.3-3.9,3.1-6l-14-8.2L183.5,219.3z"/>
			<path class="st3" d="M192.4,240c2-1.7,3.9-3.7,5.4-5.9l-13.1-7.7L192.4,240z"/>
			<path class="st3" d="M202.9,211.9l-15.3-0.1l-3.3,1.9c0.1,0.5,0.1,0.9,0.1,1.4c0,0.5,0,1-0.1,1.4l3.3,1.9l15.7,0.1
				c0-0.6,0.1-1.1,0.1-1.7C203.3,215.2,203.1,213.5,202.9,211.9z"/>
			<path class="st3" d="M173.4,226c-0.5,0-1,0-1.4-0.1l-1.9,3.3l-0.1,17.8c0.9,0.1,1.9,0.1,2.8,0.1c1.3,0,2.6-0.1,3.9-0.2l0.1-17.6
				l-1.9-3.3C174.4,225.9,173.9,226,173.4,226z"/>
			<path class="st3" d="M176.8,227.7l0-2.2c-0.4,0.1-0.7,0.2-1.1,0.3L176.8,227.7z"/>
			<path class="st3" d="M176.9,204.8l0-2.2l-1.1,1.9C176.1,204.6,176.5,204.7,176.9,204.8z"/>
			<path class="st3" d="M180,223.8c-0.8,0.6-1.6,1.1-2.5,1.4l0,3.8l8.6,15.1c2-1,3.9-2.2,5.7-3.6l-8.5-14.8L180,223.8z"/>
			<path class="st3" d="M170.2,186.6l-0.1,14.5l1.9,3.3c0.5-0.1,0.9-0.1,1.4-0.1c0.5,0,1,0,1.4,0.1l1.9-3.3l0.1-14.3
				c-1.3-0.2-2.6-0.3-3.9-0.3C172.1,186.4,171.2,186.5,170.2,186.6z"/>
			<path class="st3" d="M177.4,246.8c2.8-0.4,5.5-1.2,8-2.3l-7.9-13.8L177.4,246.8z"/>
			<path class="st3" d="M72.4,234.9l2.6,4.5c2-1.7,3.9-3.7,5.4-5.9l-0.4-0.2L72.4,234.9z"/>
			<path class="st3" d="M67.6,212.7l-0.8,0.4c0,0.3,0.1,0.6,0.1,0.9l18.9,0.1c0-0.4-0.1-0.9-0.1-1.3L67.6,212.7z"/>
			<path class="st3" d="M84.3,182.1c0.1,0,0.2,0,0.3,0c0.4-0.1,1.6-1.4,2.4-2.5C85.3,180,84.6,181.2,84.3,182.1z"/>
			<polygon class="st3" points="88.2,170.4 88.2,171.3 89.1,171.1 			"/>
			<path class="st3" d="M90.1,174.3c0.4,0,1.5,0.1,1.6-0.2c0.1-0.3-1.7-1.8-1.7-1.8l-1,0.5C89,172.9,89.7,174.3,90.1,174.3z"/>
			<path class="st3" d="M84.2,226.2c0.3-0.8,0.5-1.6,0.7-2.5l-8.3-1.9L84.2,226.2z"/>
			<path class="st3" d="M82.5,181.9c0.5,0.1,1,0.1,1.4,0.2c0.4-1.1,1.2-2.6,3.2-2.9l0,0.2c0.2-0.4,0.4-0.6,0.5-0.8
				c-0.4,0.1-0.9,0.2-1.4,0.3C84.6,179.4,83.2,180.9,82.5,181.9z"/>
			<path class="st3" d="M61.8,238.4c-1,0.5-0.9-0.5-1.1-1.4c-0.1-0.5-0.4-3.2-0.7-5.4L60,246.2c2.8-0.4,5.5-1.2,8-2.3l-3.8-6.6
				C63.6,237.6,62.4,238.1,61.8,238.4z"/>
			<path class="st3" d="M52.8,186l-0.1,14.5l1.9,3.3c0.5-0.1,0.9-0.1,1.4-0.1c0.5,0,1,0,1.4,0.1l1.9-3.3l0.1-14.3
				c-1.3-0.2-2.6-0.3-3.9-0.3C54.7,185.9,53.8,185.9,52.8,186z"/>
			<path class="st3" d="M59.4,204.2l0-2.2l-1.1,1.9C58.7,204,59.1,204.1,59.4,204.2z"/>
			<path class="st3" d="M64.8,236.6C64.8,236.6,64.8,236.6,64.8,236.6l3.9,6.9c2-1,3.9-2.2,5.7-3.6l-2.7-4.8L64.8,236.6z"/>
			<path class="st3" d="M65.8,219.2c-0.3,0.7-0.7,1.4-1.2,2l1.9,3.3l13.9,8.1l0.7-0.1c1.1-1.7,2.1-3.6,2.8-5.6l-9.8-5.8L65.8,219.2z
				"/>
			<path class="st3" d="M108.5,175l8.2-3.6l-8.1,2.8C108.6,174.5,108.5,174.8,108.5,175z"/>
			<path class="st3" d="M156.6,160.7c0.6-0.3,1.2-0.7,1.7-1.1c1.2-1.7,1.7-3.2,1.4-4.4c-0.1-0.4-0.3-0.9-0.6-1.2
				c-0.2,0.6-0.6,1.3-1,2.1c0.5,0.3,0.8,0.6,0.8,0.9c0.1,0.7-0.5,1.5-2,2.6c-1.9,1.3-6.2,2.9-7.5,3.4l0.1,0.3l0-0.2
				C149.6,163.1,153.3,162.5,156.6,160.7z"/>
			<path class="st3" d="M157.5,156.5c0-0.1,0.1-0.1,0.1-0.2c-0.3-0.1-0.6-0.2-1.1-0.3c-1.4-0.4-2.6-0.6-3.5-0.7
				c-0.2,0.2-0.5,0.5-0.8,0.7c-0.4,0.2-1.8-0.4-2.1-0.3c-0.2,0.1,0.1,1.5,0,1.8c-0.1,0.4-0.9,1.4-1.3,1.3c-0.4-0.1-1.3-0.6-1.3-0.6
				l-0.4,0l1.7,3.8C150.3,161.7,155.2,160.3,157.5,156.5z"/>
			<path class="st3" d="M158.6,157.1c0-0.2-0.3-0.5-0.6-0.7c0,0.1-0.1,0.2-0.1,0.2c-2.3,3.9-7.3,5.3-8.7,5.6l0.1,0.3
				c1.2-0.4,5.6-2.1,7.4-3.4C158.1,158.3,158.7,157.6,158.6,157.1z"/>
			<path class="st3" d="M156.8,161.1c-3.1,1.7-6.6,2.3-7.1,2.4l0.6,1.3c1.3-0.5,4.9-2.1,7-3.9C157.1,160.9,156.9,161,156.8,161.1z"
				/>
			<path class="st3" d="M161.8,177.8c-0.1-1.8-0.4-5.3-1.4-7.9c-1.5-3.9-0.9-7.9,0.1-10.4c0.3-0.8,0.5-1.4,0.7-2
				c-0.6,0.9-1.5,1.7-2.5,2.5c-1.7,2.4-6.5,4.5-8.2,5.2l2,4.5l2.9,1l3.4,7.9C159.4,178.3,160.8,177.9,161.8,177.8z"/>
			<path class="st3" d="M149,147.7c0-0.3-1.4-1.1-1.4-1.6c-0.1-0.5-0.4-1.2-0.6-1.2c-0.2,0-1.1,0.9-1.3,0.7c-0.2-0.1-0.1-1,0.3-1.2
				c0.4-0.2,0.4-0.6,0.2-0.8c-0.3-0.2-0.6-0.6-0.4-0.8c0.2-0.2,0.1-0.5-0.2-0.9c-0.3-0.4-2-1.9-3.8-3.5c-1.8-1.6-8.5-6.7-9.5-8.1
				c-1-1.4-1.9-3.2-3.3-4.7c-1.4-1.4-4.2-4.4-5.5-6.2c-1.3-1.7-3.6-5-3.8-4.9c-0.2,0.1,0,2.3,2.2,5.2c2.2,2.9,4.9,5.7,6.7,9.8
				c1.9,4.1,8.1,15.1,8.4,15.5c0.4,0.5,1.7,0.4,1.9,0.9c0.2,0.5,1.8,2,2.9,2c1.1,0.1,1.3-0.7,1.9-0.8c0.6-0.2,3.1-1.1,3.4-0.7
				c0.2,0.4,0.2,0.9-0.2,1c-0.5,0.1-1.3,0.3-1.3,0.5c0,0.3,0.5,0.9,0.7,0.7C146.3,148.8,149,148,149,147.7z"/>
			<path class="st3" d="M120.1,145.4c3.2,1.6,4.6,3.9,5.4,7.2c0.8,3.3-2.3,8.5-3.7,10.1c-1,1.1-3.4,3.1-4.8,4.2l24.7-8.6
				c-0.1-0.3-0.2-0.5-0.3-0.8c-0.7-0.1-1.3-0.3-1.7-0.4c-1.1-0.3-1.9-2.7-2.6-3.3c-0.6-0.5-2.3-2.5-3.3-3.8
				c-0.5,0.4-0.4,0.7-0.3,1.1c0,0.2,0.1,0.4,0,0.6c-0.3,0.5-1.2,0.9-1.3,1l-0.2-0.4c0.4-0.2,1-0.5,1.1-0.8c0-0.1,0-0.2,0-0.4
				c-0.1-0.4-0.2-0.9,0.4-1.4c0,0-0.1-0.1-0.1-0.1c-1-1.1-10.5-10.2-12.3-12.1c-1.8-1.9-4-4.9-4.8-6.1c-0.8-1.2-2.6-4.7-3.7-6.7
				c-1.2-1.9-1.9-4.9-2.5-4.6c-0.6,0.3-1.7,4.1-1.8,5c-0.1,0.9-2.1,4.3-3,5.2c-0.9,0.9-3.4,3.3-2.9,4.2c0.5,0.8,7.2,4.1,9.6,5.2
				C114.4,140.8,116.9,143.8,120.1,145.4z"/>
			<path class="st3" d="M155.5,192c-2,1.4-3.7,3-5.3,4.8l12.1,7L155.5,192z"/>
			<path class="st3" d="M94.9,226.9c-1.1-0.9-1.9-2-2.5-3.3l-0.8,0c-0.5,2.5-1.3,4.8-2.2,7.1l6.1-1.3c-0.5-0.7-0.6-1.4-0.6-2.2
				C94.9,227.1,94.9,227,94.9,226.9z"/>
			<polygon class="st3" points="140.6,165.1 142.6,162.5 135.2,165.1 			"/>
			<path class="st3" d="M121.7,169.7l-13.3,5.7c-0.2,1.3-0.4,2.6-0.6,3.3c-0.5,2.1-0.9,5.2-1,8.1c-0.1,2.9-0.4,8.6-0.6,9.6
				c-0.2,1-1.1,4-1,5c0.1,0.7-0.3,2.5-0.5,3.5c1.5,0.1,2.8,0.6,3.8,1.5l7.3-9.5c-0.5,0-1.1,0-1.2-0.1c-0.1-0.1,0.6-0.8,0.8-1.1
				c0.1-0.2,0-0.5-0.2-0.8l-0.2,0.2c-0.6,0.7-1.6,0.8-2.3,0.3l-3.6-2.9c-0.7-0.6-0.8-1.6-0.3-2.3l9.2-11.5c0,0,0,0,0.1-0.1l-0.3-0.2
				l2.1-2.7c0.6-0.8,1.7-0.9,2.5-0.3l1.4,1.1l0.9-1.1c0.3-0.3,0.7-0.4,1.1-0.1c0.3,0.3,0.4,0.7,0.1,1.1l-0.9,1.1l1.4,1.1
				c0.8,0.6,0.9,1.7,0.3,2.5l-2.1,2.7l-0.3-0.2c0,0,0,0,0,0.1l-1.5,1.8c0.2,0.6,0.3,1.3,0.3,2l17-22l-6.4,0L121.7,169.7z"/>
			<path d="M173.1,179.9c-3.4,0-6.7,0.4-9.8,1.3c0-1.2-0.1-2.9-0.7-3.2c-0.1-0.1-0.3-0.1-0.4-0.1c-0.1-1.8-0.5-5.4-1.5-8.1
				c-1.4-3.8-0.9-7.7,0.1-10.1c0.5-1.3,0.9-2.5,1.1-3.5c0.3-0.7,0.5-1.4,0.5-2.1c0-1.4-0.3-2.6-0.7-3.3c0.1-0.2,0.2-0.4,0.2-0.5
				c-0.1-0.3-1.7-1.6-1.7-1.8c0-0.2-0.1-1.1-0.3-1.4c-0.2-0.3-0.5-0.9-0.6-1.4c-0.1-0.5-0.7-0.9-0.6-1.3c0.1-0.3,0.2-0.9-0.1-1.5
				c-0.3-0.6-1-1.1-1.6-1.1c-0.6,0-1.4-0.5-2-0.6c-0.5-0.1-1.3,0.1-1.9,0c-0.6-0.1-2.5-2.7-2.5-2.7l-0.8,0c0,0-11.7-18-13.2-19.6
				c-1.5-1.6-4.7-4.1-6.5-6.6c-1.8-2.5-5-11-6.7-13.1c-1.7-2.1-2.7-3.9-3.4-4.4c-0.7-0.5,0.3-0.9,0.4-1.3c0.1-0.4,0.1-1.2,0.9-1.8
				c0.8-0.7,2.1-1.7,3.6-1.5c1.5,0.2,3.1,0.3,3.8-0.5c0.7-0.8,0.3-2.1,0.6-2.6c0.2-0.4,0.8-0.9,0.8-1.5c0-0.6,0.2-1.4,0.6-1.6
				c0.4-0.2,0.4-1.3,0.1-1.9c-0.3-0.6,0.4-0.7,1-0.9c0.6-0.2,1.1-0.9,0.4-1.7c-0.6-0.9-1.2-2.6-1.2-3.9c0-1.3,0.1-2.4,0.1-2.4
				s3.2-1.2,3.8-1.4c0.6-0.1,2.2-0.4,2.1-0.8c-0.1-0.4-1.8-2.3-3.5-4.3c-1.7-2-5.9-6.4-11.8-7c-5.9-0.7-13,2.2-13.4,2.8
				c-0.3,0.7-0.1,2-0.8,2.8c-0.7,0.8-0.9,2.2-1,3.1c-0.1,0.9,0.1,1.8-0.6,3c-0.7,1.2-0.8,2.6-0.3,3.3c0.5,0.7,1.2,1.9,1.6,1.9
				c0.3,0,1.4-0.2,1.6,0.9c0.2,1.1,0.7,2.4,0.2,2.8c-0.5,0.4-0.6,1.4-1.1,1.5c-0.5,0.1-3.4,0.5-4.4,1.7c-0.6,0.7-1.7,1.6-3.4,2.6
				c-1.9,0.3-5.1-1.9-6-2.5c-2.2-0.1-3.4,1.7-5,1.2c-0.2-1.4,0.6-2,0.5-3.4c-1.3-2.4-5.1,0.1-6.8-1.7c-1.2,0.3-2.3,1.7-3.8,2
				c-1.7,0.4-3.8-0.1-4.5,1.6c-0.1,1.6,0.7,2.2,0.9,3.5c-1,0.9-1.7-0.3-2.8-0.2c-0.8,0.5-0.8,1.7-1.7,2.2c-0.5-0.1-0.2-1.2-0.9-1.2
				c-1.6,0.8-2.6,2-3.9,3.1c-0.1,0.6,0.3,0.6,0.3,1.2c-0.5,1.5-2.2,2.3-3.1,3.7c-0.5,0.8-1,2.1-1.6,3.2c-0.9,1.7-2,2.9-1.7,5.2
				c-2,2.2,1.1,7.2,0.8,9.3c-0.1,0.7-0.7,1.2-0.8,1.8c-0.5,4,1.9,7.8,4.3,9.4c-2,4.5-2.6,8.3-2.6,8.3l0.9,0.9c0,0-1,3.5-0.6,6.4
				c0.4,3,2.6,5.9,6,7.3c3.4,1.4,7.1,3.3,7.6,4c0.5,0.6,4.2,5.3,5,7c0.8,1.7,2.9,7.4,3,7.7c0.1,0.3-0.9,1.3-0.9,1.3s1.2,0.6,1.2,0.8
				c0,0,0,0.1,0.1,0.1c-0.6,0.3-2.9,1.2-3,1.5c-0.1,0.2,0.5,1.3,1,1.6c0.4,0.8,2.2,4.2,4.7,5.2c0.1,0.4,0.5,1.2,0.7,1.7
				c-0.4,0.1-0.9,0.2-1.5,0.3c-1.8,0.5-3.2,2.3-4,3.3c-0.8-0.1-1.6,0-2,0.3c-0.7,0.6-2.3,3-3,4c-6-4.3-13.4-6.9-21.4-7
				c-20.4-0.1-37,16.3-37.1,36.7c-0.1,20.4,16.3,37,36.7,37.1c15,0.1,28-8.8,33.8-21.7l6.8-1.4c0.5,0.4,1.3,0.8,2.4,1.1
				c3.1,0.8,6.1,1.2,6.1,1.2s1,0.5,1.8,0.7c0.7,0.2,1.3,0.6,1.3,0.6s-0.5,0.5-0.4,0.6c0.1,0.1,0.9,1,1,0.9c0.2,0,0.3,0,0.3,0
				s-0.1,0.2,0.2,0.6c0.3,0.4,1.5,1.6,2,1.6c0.5,0,1.7-1.1,2-1.1c0.3,0,0.5,0.8,0.9,0.7c0.5-0.1,2.8-1.6,2.8-1.6l-0.7-1.2
				c0,0,1.1,0.3,1.7,0.1c0.6-0.2,2.6-1.6,2.7-1.6c0.2,0,1.2-0.1,1.5-0.5c0.3-0.5,1.2-2.8-2.3-3.5c-3.4-0.7-4.2-0.5-4.4-0.8
				c-0.1-0.3,0.2-0.7,0.1-0.8c-0.1-0.1-2.3-1.2-2.4-1.2c-0.2,0-0.2,0.6-0.4,0.6c-0.2,0-0.7-0.5-0.7-0.8c0-0.2,0-1-0.4-1.3
				c-0.2-0.2-0.7-0.6-1-1c0.5-1.1,0.7-2.3,0.7-3.6c0-1.6-0.4-3.1-1.1-4.5c0.4-0.6,0.7-1.3,0.9-2l35-45.3c0.6,1.2,1,2.1,1.1,2.2
				c0.7,0.5,1,1.3,1,1.3c-0.2,0.3-0.2,0.5,0.2,0.8c1.7,1.4,1.8,3,2.6,4.5c0.8,1.5,1.7,0.9,2.3,1.8c0.2,0.3,1.2,2.6,2.6,5.9
				c-11.5,6.2-19.3,18.3-19.4,32.3c-0.1,20.4,16.3,37,36.7,37.1c20.4,0.1,37-16.3,37.1-36.7C209.9,196.6,193.5,180,173.1,179.9z
				 M202.7,211.1l-13.8-0.1l11.7-6.7C201.6,206.5,202.3,208.8,202.7,211.1z M200.3,203.7l-12.9,7.4l-3.8,0c-0.4-0.9-0.8-1.7-1.4-2.5
				l0.6-1l2.4-2.9l11.7-6.7C198.1,199.7,199.3,201.6,200.3,203.7z M183.8,211.8l2.2,0l-1.9,1.1C184,212.6,183.9,212.2,183.8,211.8z
				 M186,218.5l-2.2,0c0.1-0.4,0.2-0.7,0.3-1.1L186,218.5z M196.2,197.4l-9.8,5.6l7-8.5C194.4,195.3,195.4,196.3,196.2,197.4z
				 M177.7,186.8c2.2,0.4,4.4,1,6.4,1.8l-6.5,11.1L177.7,186.8z M177.7,201.3l7.2-12.4c1.9,0.8,3.7,1.8,5.4,3l-11.4,13.8
				c-0.4-0.2-0.8-0.4-1.2-0.6L177.7,201.3z M181.5,222.4l1.1,1.9l-1.9-1.1C181,223,181.2,222.7,181.5,222.4z M170.2,202.6l1.1,1.9
				c-0.4,0.1-0.7,0.2-1.1,0.3l0,0L170.2,202.6z M170,225.4c0.4,0.1,0.7,0.2,1.1,0.3l-1.1,1.9L170,225.4z M164.3,205l-0.7-0.4
				l-7.4-13c0.6-0.4,1.2-0.8,1.9-1.2C160.2,195.5,162.6,201.1,164.3,205z M159.9,150.5c0.6,0.3,1.2,0.7,1.4,0.6c0,0,0.1,0,0.1-0.1
				c0.2,0.5,0.5,1.3,0.6,2.3c-0.1-0.2-0.2-0.4-0.3-0.6c-0.3-0.5-0.9-0.8-1.7-0.8c-0.1,0-0.2,0-0.3,0
				C159.8,151.4,159.9,150.9,159.9,150.5z M160,152.4c0.6,0,1.1,0.2,1.3,0.6c0.3,0.5,0.5,1.3,0.1,3.1c-0.4,1-1.2,2-2.2,2.9
				c0.8-1.4,1.1-2.7,0.9-3.8c-0.1-0.6-0.4-1.1-0.9-1.6c0.2-0.4,0.3-0.9,0.3-1.2C159.8,152.4,159.9,152.4,160,152.4z M157.2,150.7
				c0.3-0.2,1.2-0.8,1.5-0.8c0.1,0,0.4,0.2,0.8,0.4c0,0.4,0,1-0.2,1.7c-0.6,0-1,0-1.4,0.1C157.5,151.4,157,150.8,157.2,150.7z
				 M159.2,152.4c-0.1,0.3-0.2,0.6-0.3,0.9c-0.2-0.2-0.4-0.3-0.7-0.5c-0.1-0.1-0.1-0.3-0.2-0.4C158.4,152.4,158.8,152.4,159.2,152.4
				z M152.3,154c0.1-0.2,2.1,0,2.6,0c0.5,0,0.8-0.5,1.1-0.6c0.2,0,2,0.2,2.4-0.1c0.2,0.1,0.4,0.3,0.5,0.4c-0.2,0.7-0.6,1.4-1,2.2
				c-0.3-0.1-0.7-0.3-1.2-0.4c-1.4-0.4-2.6-0.6-3.5-0.7C153,154.6,152.2,154.1,152.3,154z M92.2,211.9c-0.3-2.5-0.8-5-1.6-7.3
				c1.4,0.4,2.9,0.7,2.9,0.7s0.9,2.7,1,3.8c0.1,0.6,0.2,1.5,0.3,2.8L92.2,211.9z M94.3,212.8c-0.4,0.4-0.8,0.8-1.1,1.3l-0.8,0
				c0-0.4-0.1-0.9-0.1-1.3L94.3,212.8z M82.6,171.3c0.5-0.3,1.5-1,2.4-1.3c0.3,0.6,0.6,1.3,0.8,1.9c-0.9,0.4-1.7,1-2,1.3
				C83.2,172.4,82.8,171.7,82.6,171.3z M84.3,174c-0.1-0.1-0.2-0.3-0.3-0.4c0.3-0.3,1.1-0.9,1.9-1.3c0,0.1,0.1,0.3,0.1,0.4
				c0,0,0,0.1,0,0.1C85.3,173,84.6,173.7,84.3,174z M84.6,174.3c0.2-0.3,0.8-0.8,1.6-1.2c0.2,1,0.4,2.2,0.6,2.9
				C85.9,175.6,85.2,175,84.6,174.3z M82.9,203.1l-12.9,7.4l-3.8,0c-0.4-0.9-0.8-1.7-1.4-2.5l0.6-1l2.4-2.9l11.7-6.7
				C80.7,199.1,81.9,201.1,82.9,203.1z M71.5,210.5l11.7-6.7c1,2.1,1.7,4.4,2.1,6.8L71.5,210.5z M85.4,211.3c0,0.2,0.1,0.3,0.1,0.5
				l-16.3-0.1l0.9-0.5L85.4,211.3z M68.6,211.2l-0.9,0.5l-1.2,0c0-0.2-0.1-0.3-0.1-0.5L68.6,211.2z M78.8,196.8l-9.8,5.6l7-8.5
				C77,194.8,77.9,195.7,78.8,196.8z M60.3,186.2c2.2,0.4,4.4,1,6.4,1.8l-6.5,11.1L60.3,186.2z M60.2,200.7l7.2-12.4
				c1.9,0.8,3.7,1.8,5.4,3l-11.4,13.8c-0.4-0.2-0.8-0.4-1.2-0.6L60.2,200.7z M71.3,234.6l-6.7,1.4c-0.1-1.1,0-3-0.4-3.2
				c-0.4-0.2-1.2,0.2-1.7,0l-0.3-0.6c0,0,0-0.1,0-0.1c0-0.9-0.1-5.5-0.2-8.4c0.2-0.1,0.4-0.3,0.6-0.4l3.3,1.9L71.3,234.6z
				 M67.3,225.9l12,7l-7.1,1.5L67.3,225.9z M63.3,222.6c0.3-0.3,0.6-0.5,0.8-0.8l1.1,1.9L63.3,222.6z M52.7,202l1.1,1.9
				c-0.4,0.1-0.7,0.2-1.1,0.3L52.7,202z M52.6,225.4c0.5,0,1-0.1,1-0.1l-1,1.7L52.6,225.4z M38.1,191.4l6.7,11.8l-12.1-7
				C34.3,194.4,36.1,192.8,38.1,191.4z M32.2,196.7l13.3,7.8l1.9,3.3c-0.6,0.8-1.1,1.6-1.5,2.5l-3.8,0l-13.7-8
				C29.5,200.3,30.8,198.5,32.2,196.7z M46.9,205.3l1.9,1.1c-0.3,0.3-0.6,0.5-0.8,0.8L46.9,205.3z M45.7,217.8l-2.2,0l1.9-1.1
				C45.5,217.1,45.6,217.5,45.7,217.8z M43.5,211.1l2.2,0c-0.1,0.4-0.2,0.7-0.3,1.1L43.5,211.1z M28.2,203l12.5,7.3l-14.9-0.1
				C26.3,207.7,27.1,205.3,28.2,203z M25.2,216c0-1.7,0.2-3.4,0.4-5l16.3,0.1l3.3,1.9c-0.1,0.5-0.1,0.9-0.1,1.4c0,0.5,0,1,0.1,1.4
				l-3.3,1.9l-16.7-0.1C25.2,217.2,25.2,216.6,25.2,216z M25.3,218.5l15.3,0.1l-13.6,7.8C26.1,223.9,25.5,221.3,25.3,218.5z
				 M27.2,227.1l14.9-8.5l3.8,0c0.4,0.9,0.8,1.7,1.4,2.5l-1.9,3.3l-15.1,8.6C29.1,231.2,28,229.2,27.2,227.1z M47.1,223.5l-0.3,0.2
				l0.2-0.3C47,223.4,47,223.5,47.1,223.5z M30.8,233.7l13.9-7.9l-8.2,14C34.3,238,32.4,236,30.8,233.7z M51.7,246.3
				c-2.9-0.4-5.6-1.1-8.2-2.2l8.2-14.1L51.7,246.3z M51.8,228.4l-9,15.4c-2.1-0.9-4-2.1-5.8-3.5L46,225l2.1-1.2
				c0.6,0,1.2-0.3,1.6-0.5c0.1,0,0.1,0.1,0.2,0.2c-0.1,0.2-0.2,0.5,0,0.6c0.1,0.1,0.5,0,0.9-0.1c0.3,0.2,0.7,0.4,1.1,0.5
				c0,0.1,0,0.1,0,0.2L51.8,228.4z M52,204.5c-0.9,0.4-1.7,0.8-2.5,1.4l-3.3-1.9l-7.4-13c1.9-1.2,3.9-2.3,6-3.1l7.3,12.8L52,204.5z
				 M52,199.1l-6.6-11.5c2.1-0.7,4.3-1.3,6.6-1.5L52,199.1z M59.2,246.3c-1.3,0.2-2.6,0.2-3.9,0.2c-1,0-1.9-0.1-2.8-0.1l0.1-17.8
				l1.3-2.3c0.4,0.5,1.2,1,2.8,1.2c1,0.1,1.7,0.3,2.2,0.4l0.4,0.7L59.2,246.3z M59.4,204.2c-0.4-0.1-0.7-0.2-1.1-0.3l1.1-1.9
				L59.4,204.2z M59.5,200.5l-1.9,3.3c-0.5-0.1-0.9-0.1-1.4-0.1c-0.5,0-1,0-1.4,0.1l-1.9-3.3l0.1-14.5c0.9-0.1,1.9-0.1,2.8-0.1
				c1.3,0,2.6,0.1,3.9,0.3L59.5,200.5z M60,246.2l0.1-14.6c0.3,2.3,0.6,4.9,0.7,5.4c0.1,0.9,0,1.9,1.1,1.4c0.6-0.3,1.8-0.8,2.4-1.1
				l3.8,6.6C65.5,245,62.8,245.8,60,246.2z M68.7,243.5l-3.9-6.9c0,0,0,0,0-0.1l6.9-1.5l2.7,4.8C72.6,241.3,70.7,242.5,68.7,243.5z
				 M75,239.4l-2.6-4.5l7.6-1.6l0.4,0.2C78.8,235.7,77,237.7,75,239.4z M81.1,232.5l-0.7,0.1l-13.9-8.1l-1.9-3.3
				c0.5-0.6,0.9-1.3,1.2-2l8.2,1.9l9.8,5.8C83.1,228.9,82.2,230.8,81.1,232.5z M84.2,226.2l-7.6-4.4l8.3,1.9
				C84.7,224.5,84.4,225.4,84.2,226.2z M66.9,214c0-0.3,0-0.6-0.1-0.9l0.8-0.4l18.1,0.1c0,0.4,0.1,0.9,0.1,1.3L66.9,214z
				 M84.6,182.1c-0.1,0-0.2,0-0.3,0c0.3-0.9,1.1-2.2,2.6-2.5C86.2,180.7,84.9,182,84.6,182.1z M87.1,179.4l0-0.2
				c-1.9,0.3-2.8,1.8-3.2,2.9c-0.4,0-0.9-0.1-1.4-0.2c0.8-1,2.1-2.5,3.7-3c0.5-0.2,1-0.3,1.4-0.3C87.5,178.8,87.3,179.1,87.1,179.4z
				 M88.2,170.4l0.9,0.8l-0.9,0.1L88.2,170.4z M89,172.9l1-0.5c0,0,1.8,1.6,1.7,1.8c-0.1,0.3-1.2,0.2-1.6,0.2
				C89.7,174.3,89,172.9,89,172.9z M89.4,230.7c1-2.3,1.7-4.6,2.2-7.1l0.8,0c0.6,1.3,1.5,2.4,2.5,3.3c0,0.1,0,0.2,0,0.3
				c0,0.8,0.1,1.5,0.6,2.2L89.4,230.7z M102.4,134.6c-0.5-0.8,2-3.3,2.9-4.2c0.9-0.9,2.9-4.3,3-5.2c0.1-0.9,1.3-4.8,1.8-5
				c0.6-0.3,1.3,2.7,2.5,4.6c1.2,1.9,2.9,5.5,3.7,6.7c0.8,1.2,3,4.2,4.8,6.1c1.8,1.9,11.3,11,12.3,12.1c0,0,0.1,0.1,0.1,0.1
				c-0.6,0.6-0.5,1.1-0.4,1.4c0,0.1,0.1,0.3,0,0.4c-0.1,0.3-0.8,0.6-1.1,0.8l0.2,0.4c0.1,0,1.1-0.5,1.3-1c0.1-0.2,0.1-0.4,0-0.6
				c-0.1-0.3-0.2-0.7,0.3-1.1c1,1.2,2.7,3.2,3.3,3.8c0.6,0.6,1.5,3,2.6,3.3c0.3,0.1,1,0.2,1.7,0.4c0.1,0.2,0.2,0.5,0.3,0.8
				l-24.7,8.6c1.4-1.1,3.8-3.1,4.8-4.2c1.4-1.5,4.5-6.8,3.7-10.1c-0.8-3.3-2.2-5.6-5.4-7.2c-3.2-1.6-5.7-4.6-8.1-5.6
				C109.6,138.7,102.9,135.5,102.4,134.6z M116.7,171.5l-8.2,3.6c0-0.3,0.1-0.5,0.1-0.7L116.7,171.5z M123.2,187.6
				c0-0.7-0.1-1.4-0.3-2l1.5-1.8c0,0,0,0,0-0.1l0.3,0.2l2.1-2.7c0.6-0.8,0.5-1.9-0.3-2.5l-1.4-1.1l0.9-1.1c0.3-0.3,0.2-0.8-0.1-1.1
				c-0.3-0.3-0.8-0.2-1.1,0.1l-0.9,1.1l-1.4-1.1c-0.8-0.6-1.9-0.5-2.5,0.3l-2.1,2.7l0.3,0.2c0,0,0,0-0.1,0.1l-9.2,11.5
				c-0.6,0.7-0.4,1.7,0.3,2.3l3.6,2.9c0.7,0.6,1.7,0.4,2.3-0.3l0.2-0.2c0.1,0.3,0.3,0.7,0.2,0.8c-0.2,0.3-0.9,1-0.8,1.1
				c0.1,0.1,0.6,0.1,1.2,0.1l-7.3,9.5c-1-0.9-2.4-1.5-3.8-1.5c0.2-1,0.6-2.8,0.5-3.5c-0.1-1,0.8-4.1,1-5c0.2-1,0.5-6.7,0.6-9.6
				c0.1-2.9,0.5-6,1-8.1c0.2-0.8,0.4-2,0.6-3.3l13.3-5.7l12.2-4.2l6.4,0L123.2,187.6z M140.6,165.1l-5.4,0l7.5-2.6L140.6,165.1z
				 M146.1,148.9c-0.2,0.1-0.7-0.5-0.7-0.7c0-0.3,0.9-0.4,1.3-0.5c0.5-0.1,0.5-0.6,0.2-1c-0.2-0.4-2.8,0.5-3.4,0.7
				c-0.6,0.2-0.8,0.9-1.9,0.8c-1.1-0.1-2.6-1.6-2.9-2c-0.2-0.5-1.6-0.5-1.9-0.9c-0.4-0.5-6.6-11.5-8.4-15.5
				c-1.9-4.1-4.6-6.9-6.7-9.8c-2.2-2.9-2.4-5.1-2.2-5.2c0.2-0.1,2.4,3.2,3.8,4.9c1.3,1.7,4.1,4.7,5.5,6.2c1.4,1.4,2.4,3.3,3.3,4.7
				c1,1.4,7.7,6.5,9.5,8.1c1.8,1.6,3.5,3.1,3.8,3.5c0.3,0.4,0.4,0.7,0.2,0.9c-0.2,0.2,0.2,0.6,0.4,0.8c0.3,0.2,0.2,0.6-0.2,0.8
				c-0.4,0.2-0.5,1.1-0.3,1.2c0.2,0.1,1.2-0.7,1.3-0.7c0.2,0,0.5,0.7,0.6,1.2c0.1,0.5,1.4,1.3,1.4,1.6
				C149,148,146.3,148.8,146.1,148.9z M147.3,158.2l0.4,0c0,0,0.9,0.5,1.3,0.6c0.4,0.1,1.1-0.9,1.3-1.3c0.1-0.4-0.2-1.7,0-1.8
				c0.2-0.1,1.7,0.5,2.1,0.3c0.2-0.1,0.6-0.4,0.8-0.7c0.9,0.1,2.1,0.3,3.5,0.7c0.4,0.1,0.8,0.2,1.1,0.3c0,0.1-0.1,0.1-0.1,0.2
				c-2.3,3.8-7.2,5.2-8.5,5.5L147.3,158.2z M149.2,162.3c1.4-0.3,6.4-1.7,8.7-5.6c0-0.1,0.1-0.2,0.1-0.2c0.4,0.2,0.6,0.4,0.6,0.7
				c0.1,0.5-0.5,1.2-1.9,2.2c-1.8,1.3-6.2,2.9-7.4,3.4L149.2,162.3z M149.5,163c1.3-0.5,5.6-2.1,7.5-3.4c1.6-1.1,2.2-1.9,2-2.6
				c-0.1-0.4-0.3-0.7-0.8-0.9c0.4-0.7,0.7-1.4,1-2.1c0.3,0.4,0.5,0.8,0.6,1.2c0.3,1.2-0.2,2.7-1.4,4.4c-0.5,0.4-1.1,0.7-1.7,1.1
				c-3.3,1.8-7,2.3-7,2.3l0,0.2L149.5,163z M149.7,163.5c0.5-0.1,4-0.7,7.1-2.4c0.2-0.1,0.3-0.2,0.5-0.3c-2.1,1.8-5.7,3.4-7,3.9
				L149.7,163.5z M155.4,170.6l-2.9-1l-2-4.5c1.7-0.7,6.5-2.8,8.2-5.2c1-0.8,1.9-1.6,2.5-2.5c-0.2,0.6-0.4,1.3-0.7,2
				c-1,2.5-1.5,6.5-0.1,10.4c1,2.6,1.3,6.1,1.4,7.9c-1,0.1-2.3,0.5-3,0.7L155.4,170.6z M155.5,192l6.7,11.8l-12.1-7
				C151.7,194.9,153.5,193.3,155.5,192z M149.7,197.3l13.3,7.8l1.9,3.3c-0.6,0.8-1.1,1.6-1.5,2.5l-3.8,0l-13.7-8
				C147,200.9,148.2,199.1,149.7,197.3z M165.4,207.8l-1.1-1.9l0.4,0.3C165,206.8,165.3,207.3,165.4,207.8
				C165.5,207.8,165.4,207.8,165.4,207.8z M166.2,223.2l-1.9,1.1l1.1-1.9C165.6,222.6,165.9,222.9,166.2,223.2z M163.1,218.4l-2.2,0
				l1.9-1.1C162.9,217.7,163,218.1,163.1,218.4z M160.9,211.7l2.2,0c-0.1,0.4-0.2,0.7-0.3,1.1L160.9,211.7z M145.6,203.6l12.5,7.3
				l-14.9-0.1C143.7,208.3,144.5,205.9,145.6,203.6z M142.6,216.6c0-1.7,0.2-3.4,0.4-5l16.3,0.1l3.3,1.9c-0.1,0.5-0.1,0.9-0.1,1.4
				c0,0.5,0,1,0.1,1.4l-3.3,1.9l-16.7-0.1C142.6,217.8,142.6,217.2,142.6,216.6z M142.7,219.1l15.3,0.1l-13.6,7.8
				C143.5,224.5,142.9,221.8,142.7,219.1z M144.6,227.7l14.9-8.5l3.8,0c0.4,0.9,0.8,1.7,1.4,2.5l-1.9,3.3l-15.1,8.6
				C146.5,231.8,145.5,229.8,144.6,227.7z M148.2,234.3l13.9-7.9l-8.2,14C151.7,238.6,149.8,236.6,148.2,234.3z M169.2,246.9
				c-2.9-0.4-5.6-1.1-8.2-2.2l8.2-14.1L169.2,246.9z M169.3,229l-9,15.4c-2.1-0.9-4-2.1-5.8-3.5l8.9-15.3l3.3-1.9
				c0.8,0.6,1.6,1.1,2.5,1.5L169.3,229z M169.4,203l-3.2-7.3l3.2,5.6L169.4,203z M169.4,199.7l-6-10.5l-0.5-1
				c2.1-0.7,4.3-1.2,6.5-1.5L169.4,199.7z M176.7,246.9c-1.3,0.2-2.6,0.2-3.9,0.2c-1,0-1.9-0.1-2.8-0.1l0.1-17.8l1.9-3.3
				c0.5,0.1,0.9,0.1,1.4,0.1c0.5,0,1,0,1.4-0.1l1.9,3.3L176.7,246.9z M176.8,227.7l-1.1-1.9c0.4-0.1,0.7-0.2,1.1-0.3L176.8,227.7z
				 M176.9,204.8c-0.4-0.1-0.7-0.2-1.1-0.3l1.1-1.9L176.9,204.8z M176.9,201.1l-1.9,3.3c-0.5-0.1-0.9-0.1-1.4-0.1
				c-0.5,0-1,0-1.4,0.1l-1.9-3.3l0.1-14.5c0.9-0.1,1.9-0.1,2.8-0.1c1.3,0,2.6,0.1,3.9,0.3L176.9,201.1z M177.4,246.8l0.1-16.2
				l7.9,13.8C182.9,245.5,180.2,246.3,177.4,246.8z M186.1,244.1l-8.6-15.1l0-3.8c0.9-0.4,1.7-0.8,2.5-1.4l3.3,1.9l8.5,14.8
				C190.1,241.9,188.1,243.1,186.1,244.1z M192.4,240l-7.7-13.5l13.1,7.7C196.3,236.3,194.5,238.3,192.4,240z M198.2,233.5
				l-14.3-8.4l-1.9-3.3c0.6-0.8,1.1-1.6,1.4-2.5l3.8,0l14,8.2C200.5,229.6,199.5,231.6,198.2,233.5z M201.6,226.8l-12.7-7.4
				l14.3,0.1C202.9,222,202.4,224.4,201.6,226.8z M187.5,218.6l-3.3-1.9c0.1-0.5,0.1-0.9,0.1-1.4c0-0.5,0-1-0.1-1.4l3.3-1.9
				l15.3,0.1c0.3,1.6,0.4,3.3,0.4,5c0,0.6,0,1.1-0.1,1.7L187.5,218.6z"/>
		</g>
	</g>
</g>
</svg>
